<?xml version="1.0" encoding="UTF-8"?>
<svg version="1.1" viewBox="0 0 24 24" xmlns="http://www.w3.org/2000/svg" xmlns:xlink="http://www.w3.org/1999/xlink">
<defs>
<linearGradient id="a" x1="3.1238" x2="20.875" y1="11.999" y2="11.999" gradientUnits="userSpaceOnUse">
<stop stop-color="#66d4cf" offset="0"/>
<stop stop-color="#5e5ce6" offset="1"/>
</linearGradient>
</defs>
<rect width="24" height="24" fill="#1e1e1e" stroke-width="1.2091"/>
<path d="M18.875,0H4.4A1.533,1.533,0,0,0,3.125,1.573V19.048a1.74,1.74,0,0,0,1.1,1.625l8,3.2a1.75,1.75,0,0,0,2.4-1.625v-17a1.744,1.744,0,0,0-1.1-1.625L10.664,2.482A.25.25,0,0,1,10.757,2h7.868a.25.25,0,0,1,.25.25V18.725a.25.25,0,0,1-.25.25h-1.75a1,1,0,0,0,0,2h2a2,2,0,0,0,2-2V2A2,2,0,0,0,18.875,0Z" fill="url(#a)"/>
</svg>
