<?xml version="1.0" encoding="UTF-8"?>
<svg version="1.1" viewBox="0 0 100 100" xml:space="preserve" xmlns="http://www.w3.org/2000/svg"><defs><linearGradient id="a" x1="2" x2="30" y1="16.5" y2="16.5" gradientTransform="matrix(3.3045 0 0 3.3045 -2.8727 5.389)" gradientUnits="userSpaceOnUse"><stop stop-color="#66d4cf" offset="0"/><stop stop-color="#aa64ff" offset="1"/></linearGradient></defs><style type="text/css">
	.st0{fill:#FFFFFF;}
</style><rect width="100" height="100" fill="#1e1e1e"/><path d="m13.65 15.303c-5.6177 0-9.9141 4.2963-9.9141 9.9141v49.568c0 5.6177 4.2963 9.9121 9.9141 9.9121h72.699c5.6177 0 9.9141-4.2944 9.9141-9.9121v-49.568c0-5.6177-4.2963-9.9141-9.9141-9.9141zm6.6094 13.219h16.521c5.6177 0 9.9141 4.2944 9.9141 9.9121v33.047c0-5.6177-4.2963-9.9141-9.9141-9.9141h-16.521c-1.9827 0-3.3047-1.322-3.3047-3.3047v-26.436c0-1.9827 1.322-3.3047 3.3047-3.3047zm42.959 0h16.521c1.9827 0 3.3047 1.322 3.3047 3.3047v26.436c0 1.9827-1.322 3.3047-3.3047 3.3047h-16.521c-5.6177 0-9.9141 4.2963-9.9141 9.9141v-33.047c0-5.6177 4.2963-9.9121 9.9141-9.9121z" fill="url(#a)" stroke-width="3.3046"/></svg>
