<?xml version="1.0" encoding="UTF-8" standalone="no"?>
<svg
   id="Icons"
   version="1.1"
   viewBox="0 0 100 100"
   xml:space="preserve"
   sodipodi:docname="logo.svg"
   inkscape:version="1.2.1 (9c6d41e, 2022-07-14)"
   width="100"
   height="100"
   inkscape:export-filename="../../../../public/logo192.png"
   inkscape:export-xdpi="96"
   inkscape:export-ydpi="96"
   xmlns:inkscape="http://www.inkscape.org/namespaces/inkscape"
   xmlns:sodipodi="http://sodipodi.sourceforge.net/DTD/sodipodi-0.dtd"
   xmlns:xlink="http://www.w3.org/1999/xlink"
   xmlns="http://www.w3.org/2000/svg"
   xmlns:svg="http://www.w3.org/2000/svg"><defs
     id="defs17"><linearGradient
       inkscape:collect="always"
       id="linearGradient77842"><stop
         style="stop-color:#66d4cf;stop-opacity:1;"
         offset="0"
         id="stop77838" /><stop
         style="stop-color:#5e5ce6;stop-opacity:1;"
         offset="1"
         id="stop77840" /></linearGradient><linearGradient
       inkscape:collect="always"
       xlink:href="#linearGradient77842"
       id="linearGradient77844"
       x1="2"
       y1="16.5"
       x2="30"
       y2="16.5"
       gradientUnits="userSpaceOnUse"
       gradientTransform="matrix(3.3045468,0,0,3.3045468,-2.872747,5.3890423)" /></defs><sodipodi:namedview
     id="namedview15"
     pagecolor="#ffffff"
     bordercolor="#000000"
     borderopacity="0.25"
     inkscape:showpageshadow="2"
     inkscape:pageopacity="0.0"
     inkscape:pagecheckerboard="0"
     inkscape:deskcolor="#d1d1d1"
     showgrid="false"
     inkscape:zoom="5.4640946"
     inkscape:cx="31.203706"
     inkscape:cy="55.269907"
     inkscape:window-width="1440"
     inkscape:window-height="900"
     inkscape:window-x="253"
     inkscape:window-y="1080"
     inkscape:window-maximized="0"
     inkscape:current-layer="Icons" /><style
     type="text/css"
     id="style2">
	.st0{fill:#FFFFFF;}
</style><rect
     style="fill:#1e1e1e;fill-opacity:1"
     id="rect15118"
     width="100"
     height="100"
     x="0"
     y="0"
     inkscape:export-filename="../../../../public/logo512.png"
     inkscape:export-xdpi="96"
     inkscape:export-ydpi="96" /><path
     id="path6"
     style="fill:url(#linearGradient77844);fill-opacity:1;fill-rule:nonzero;stroke-width:3.30456"
     d="m 13.650391,15.302734 c -5.6177189,0 -9.9140629,4.296345 -9.9140629,9.914063 v 49.56836 c 0,5.617718 4.296344,9.912109 9.9140629,9.912109 H 36.453125 63.21875 86.349609 c 5.617719,0 9.914063,-4.294391 9.914063,-9.912109 v -49.56836 c 0,-5.617718 -4.296344,-9.914063 -9.914063,-9.914063 z m 6.609375,13.218751 H 36.78125 c 5.617718,0 9.914062,4.294391 9.914062,9.912109 v 33.046875 c 0,-5.617716 -4.296344,-9.914062 -9.914062,-9.914062 H 20.259766 c -1.982724,0 -3.304688,-1.321966 -3.304688,-3.304688 V 31.826172 c 0,-1.982724 1.321964,-3.304687 3.304688,-3.304687 z m 42.958984,0 h 16.521484 c 1.982722,0 3.304688,1.321963 3.304688,3.304687 v 26.435547 c 0,1.982722 -1.321966,3.304688 -3.304688,3.304688 H 63.21875 c -5.617717,0 -9.914062,4.296346 -9.914062,9.914062 V 38.433594 c 0,-5.617718 4.296345,-9.912109 9.914062,-9.912109 z"
     inkscape:export-filename="logo.svg"
     inkscape:export-xdpi="96"
     inkscape:export-ydpi="96" /></svg>
