<?xml version="1.0" encoding="UTF-8"?>
<svg version="1.1" viewBox="0 0 100 80" xml:space="preserve" xmlns="http://www.w3.org/2000/svg"><style type="text/css">
	.st0{fill:#FFFFFF;}
</style><rect width="100" height="80" fill="#0a192f" stroke-width=".89443"/><path d="m13.65 5.3029c-5.6177 0-9.9141 4.2963-9.9141 9.9141v49.568c0 5.6177 4.2963 9.9121 9.9141 9.9121h72.699c5.6177 0 9.9141-4.2944 9.9141-9.9121v-49.568c0-5.6177-4.2963-9.9141-9.9141-9.9141zm6.6094 13.219h16.521c5.6177 0 9.9141 4.2944 9.9141 9.9121v33.047c0-5.6177-4.2963-9.9141-9.9141-9.9141h-16.521c-1.9827 0-3.3047-1.322-3.3047-3.3047v-26.436c0-1.9827 1.322-3.3047 3.3047-3.3047zm42.959 0h16.521c1.9827 0 3.3047 1.322 3.3047 3.3047v26.436c0 1.9827-1.322 3.3047-3.3047 3.3047h-16.521c-5.6177 0-9.9141 4.2963-9.9141 9.9141v-33.047c0-5.6177 4.2963-9.9121 9.9141-9.9121z" fill="#64ffda" stroke-width="0"/></svg>
