<?xml version="1.0" encoding="UTF-8"?>
<svg version="1.1" viewBox="0 0 20 20" xmlns="http://www.w3.org/2000/svg">
<defs>
<linearGradient id="a" x2="20" y1="10" y2="10" gradientUnits="userSpaceOnUse">
<stop stop-color="#64ffda" offset="0"/>
<stop stop-color="#64ffda" offset="1"/>
</linearGradient>
</defs>
<rect width="20" height="20" fill="#0a192f" stroke-width="2.693"/>
<path d="m2 0c-1.1 0-2 0.9-2 2v16a2 2 0 0 0 2 2h16a2 2 0 0 0 2-2v-16a2 2 0 0 0-2-2h-16zm8 3a3 3 0 0 1 3 3v2a3 3 0 0 1-6 0v-2a3 3 0 0 1 3-3zm0 10a15.93 15.93 0 0 1 8 2.1406v2.8594h-16v-2.8594c2.35-1.36 5.09-2.1406 8-2.1406z" fill="url(#a)"/>
</svg>
